# Blender 3.2.0 Alpha
# www.blender.org
mtllib simple.mtl
o Cube
v 1.982268 1.861622 1.096913
v 1.982268 -0.138378 1.096913
v 1.982268 1.861622 3.096913
v 1.982268 -0.138378 3.096913
v -0.017732 1.861622 1.096913
v -0.017732 -0.138378 1.096913
v -0.017732 1.861622 3.096913
v -0.017732 -0.138378 3.096913
vn -0.0000 1.0000 -0.0000
vn -0.0000 -0.0000 1.0000
vn -1.0000 -0.0000 -0.0000
vn -0.0000 -1.0000 -0.0000
vn 1.0000 -0.0000 -0.0000
vn -0.0000 -0.0000 -1.0000
vt 0.625000 0.500000
vt 0.375000 0.500000
vt 0.625000 0.750000
vt 0.375000 0.750000
vt 0.875000 0.500000
vt 0.625000 0.250000
vt 0.125000 0.500000
vt 0.375000 0.250000
vt 0.875000 0.750000
vt 0.625000 1.000000
vt 0.625000 0.000000
vt 0.375000 1.000000
vt 0.375000 0.000000
vt 0.125000 0.750000
s 0
usemtl Material
f 1/1/1 5/5/1 7/9/1 3/3/1
f 4/4/2 3/3/2 7/10/2 8/12/2
f 8/13/3 7/11/3 5/6/3 6/8/3
f 6/7/4 2/2/4 4/4/4 8/14/4
f 2/2/5 1/1/5 3/3/5 4/4/5
f 6/8/6 5/6/6 1/1/6 2/2/6
o Cone
v 0.407380 -0.306754 -0.314334
v 0.361959 0.017673 0.636668
v -0.474974 -0.148207 -0.119207
v 0.134238 0.540852 0.058623
vn 0.5424 -0.5511 -0.6341
vn 0.0418 0.9955 -0.0850
vn 0.3791 -0.0758 0.9222
vn -0.6538 0.4147 0.6329
vn -0.0994 -0.9432 0.3170
vn -0.9306 -0.2742 -0.2425
vt 0.490000 0.250000
vt 0.990000 0.250000
vt 0.203178 0.485388
vt 0.485388 0.203178
vt 0.158156 0.028269
vt 0.658156 0.028269
vt 0.116663 0.050447
vt 0.658156 0.471731
vt 0.158156 0.471731
vt 0.250000 0.250000
s 1
f 9/15/7 12/24/8 10/18/9
s 0
f 10/19/10 12/24/10 11/21/10
f 9/16/11 10/20/11 11/22/11
s 1
f 11/23/12 12/24/8 9/17/7
o Cylinder
v -1.568377 -3.132624 -0.046968
v -1.568377 -1.132624 -0.046968
v -1.373286 -3.132624 -0.027753
v -1.373286 -1.132624 -0.027753
v -1.185693 -3.132624 0.029152
v -1.185693 -1.132624 0.029152
v -1.012806 -3.132624 0.121562
v -1.012806 -1.132624 0.121562
v -0.861270 -3.132624 0.245925
v -0.861270 -1.132624 0.245925
v -0.736907 -3.132624 0.397462
v -0.736907 -1.132624 0.397462
v -0.644497 -3.132624 0.570349
v -0.644497 -1.132624 0.570349
v -0.587591 -3.132624 0.757942
v -0.587591 -1.132624 0.757942
v -0.568377 -3.132624 0.953032
v -0.568377 -1.132624 0.953032
v -0.587591 -3.132624 1.148122
v -0.587591 -1.132624 1.148122
v -0.644497 -3.132624 1.335715
v -0.644497 -1.132624 1.335715
v -0.736907 -3.132624 1.508602
v -0.736907 -1.132624 1.508602
v -0.861270 -3.132624 1.660139
v -0.861270 -1.132624 1.660139
v -1.012806 -3.132624 1.784502
v -1.012806 -1.132624 1.784502
v -1.185693 -3.132624 1.876911
v -1.185693 -1.132624 1.876911
v -1.373286 -3.132624 1.933817
v -1.373286 -1.132624 1.933817
v -1.568377 -3.132624 1.953032
v -1.568377 -1.132624 1.953032
v -1.763467 -3.132624 1.933817
v -1.763467 -1.132624 1.933817
v -1.951060 -3.132624 1.876911
v -1.951060 -1.132624 1.876911
v -2.123947 -3.132624 1.784501
v -2.123947 -1.132624 1.784501
v -2.275483 -3.132624 1.660139
v -2.275483 -1.132624 1.660139
v -2.399846 -3.132624 1.508602
v -2.399846 -1.132624 1.508602
v -2.492256 -3.132624 1.335716
v -2.492256 -1.132624 1.335716
v -2.549162 -3.132624 1.148122
v -2.549162 -1.132624 1.148122
v -2.568377 -3.132624 0.953032
v -2.568377 -1.132624 0.953032
v -2.549162 -3.132624 0.757941
v -2.549162 -1.132624 0.757941
v -2.492256 -3.132624 0.570348
v -2.492256 -1.132624 0.570348
v -2.399846 -3.132624 0.397462
v -2.399846 -1.132624 0.397462
v -2.275483 -3.132624 0.245925
v -2.275483 -1.132624 0.245925
v -2.123947 -3.132624 0.121562
v -2.123947 -1.132624 0.121562
v -1.951060 -3.132624 0.029152
v -1.951060 -1.132624 0.029152
v -1.763467 -3.132624 -0.027753
v -1.763467 -1.132624 -0.027753
vn 0.0980 -0.0000 -0.9952
vn 0.2903 -0.0000 -0.9569
vn 0.4714 -0.0000 -0.8819
vn 0.6344 -0.0000 -0.7730
vn 0.7730 -0.0000 -0.6344
vn 0.8819 -0.0000 -0.4714
vn 0.9569 -0.0000 -0.2903
vn 0.9952 -0.0000 -0.0980
vn 0.9952 -0.0000 0.0980
vn 0.9569 -0.0000 0.2903
vn 0.8819 -0.0000 0.4714
vn 0.7730 -0.0000 0.6344
vn 0.6344 -0.0000 0.7730
vn 0.4044 -0.6857 0.6052
vn 0.4044 0.6857 0.6052
vn 0.2786 0.6857 0.6725
vn 0.2786 -0.6857 0.6725
vn 0.1420 0.6857 0.7139
vn 0.1420 -0.6857 0.7139
vn -0.0000 0.6857 0.7279
vn -0.0000 -0.6857 0.7279
vn -0.1420 0.6857 0.7139
vn -0.1420 -0.6857 0.7139
vn -0.2903 -0.0000 0.9569
vn -0.4714 -0.0000 0.8819
vn -0.6344 -0.0000 0.7730
vn -0.7730 -0.0000 0.6344
vn -0.6052 -0.6857 0.4044
vn -0.6052 0.6857 0.4044
vn -0.6725 0.6857 0.2786
vn -0.6725 -0.6857 0.2786
vn -0.7139 0.6857 0.1420
vn -0.7139 -0.6857 0.1420
vn -0.7279 0.6857 -0.0000
vn -0.7279 -0.6857 -0.0000
vn -0.7139 0.6857 -0.1420
vn -0.7139 -0.6857 -0.1420
vn -0.9569 -0.0000 -0.2903
vn -0.8819 -0.0000 -0.4714
vn -0.7730 -0.0000 -0.6344
vn -0.5147 -0.6857 -0.5147
vn -0.5147 0.6857 -0.5147
vn -0.4044 0.6857 -0.6052
vn -0.4044 -0.6857 -0.6052
vn -0.2786 0.6857 -0.6725
vn -0.2786 -0.6857 -0.6725
vn -0.0000 1.0000 -0.0000
vn -0.1420 0.6857 -0.7139
vn -0.1420 -0.6857 -0.7139
vn -0.0000 0.6857 -0.7279
vn -0.0000 -0.6857 -0.7279
vn -0.0000 -1.0000 -0.0000
vt 1.000000 0.500000
vt 0.000000 0.500000
vt 0.750000 0.490000
vt 1.000000 1.000000
vt 0.250000 0.490000
vt 0.000000 1.000000
vt 0.968750 0.500000
vt 0.796822 0.485388
vt 0.968750 1.000000
vt 0.296822 0.485388
vt 0.937500 0.500000
vt 0.841844 0.471731
vt 0.937500 1.000000
vt 0.341844 0.471731
vt 0.906250 0.500000
vt 0.883337 0.449553
vt 0.906250 1.000000
vt 0.383337 0.449553
vt 0.875000 0.500000
vt 0.919706 0.419706
vt 0.875000 1.000000
vt 0.419706 0.419706
vt 0.843750 0.500000
vt 0.949553 0.383337
vt 0.843750 1.000000
vt 0.449553 0.383337
vt 0.812500 0.500000
vt 0.971731 0.341844
vt 0.812500 1.000000
vt 0.471731 0.341844
vt 0.781250 0.500000
vt 0.985388 0.296822
vt 0.781250 1.000000
vt 0.485388 0.296822
vt 0.750000 0.500000
vt 0.990000 0.250000
vt 0.750000 1.000000
vt 0.490000 0.250000
vt 0.718750 0.500000
vt 0.985388 0.203178
vt 0.718750 1.000000
vt 0.485388 0.203178
vt 0.687500 0.500000
vt 0.971731 0.158156
vt 0.687500 1.000000
vt 0.471731 0.158156
vt 0.656250 0.500000
vt 0.949553 0.116663
vt 0.656250 1.000000
vt 0.449553 0.116663
vt 0.625000 0.500000
vt 0.919706 0.080294
vt 0.625000 1.000000
vt 0.419706 0.080294
vt 0.593750 0.500000
vt 0.883337 0.050447
vt 0.593750 1.000000
vt 0.383337 0.050447
vt 0.562500 0.500000
vt 0.841844 0.028269
vt 0.562500 1.000000
vt 0.341844 0.028269
vt 0.531250 0.500000
vt 0.796822 0.014612
vt 0.531250 1.000000
vt 0.296822 0.014612
vt 0.500000 0.500000
vt 0.750000 0.010000
vt 0.500000 1.000000
vt 0.250000 0.010000
vt 0.468750 0.500000
vt 0.703178 0.014612
vt 0.468750 1.000000
vt 0.203178 0.014612
vt 0.437500 0.500000
vt 0.658156 0.028269
vt 0.437500 1.000000
vt 0.158156 0.028269
vt 0.406250 0.500000
vt 0.616663 0.050447
vt 0.406250 1.000000
vt 0.116663 0.050447
vt 0.375000 0.500000
vt 0.580294 0.080294
vt 0.375000 1.000000
vt 0.080294 0.080294
vt 0.343750 0.500000
vt 0.550447 0.116663
vt 0.343750 1.000000
vt 0.050447 0.116663
vt 0.312500 0.500000
vt 0.528269 0.158156
vt 0.312500 1.000000
vt 0.028269 0.158156
vt 0.281250 0.500000
vt 0.514612 0.203178
vt 0.281250 1.000000
vt 0.014612 0.203178
vt 0.250000 0.500000
vt 0.510000 0.250000
vt 0.250000 1.000000
vt 0.010000 0.250000
vt 0.218750 0.500000
vt 0.514612 0.296822
vt 0.218750 1.000000
vt 0.014612 0.296822
vt 0.187500 0.500000
vt 0.528269 0.341844
vt 0.187500 1.000000
vt 0.028269 0.341844
vt 0.156250 0.500000
vt 0.550447 0.383337
vt 0.156250 1.000000
vt 0.050447 0.383337
vt 0.125000 0.500000
vt 0.580294 0.419706
vt 0.125000 1.000000
vt 0.080294 0.419706
vt 0.093750 0.500000
vt 0.616663 0.449553
vt 0.093750 1.000000
vt 0.116663 0.449553
vt 0.062500 0.500000
vt 0.658156 0.471731
vt 0.158156 0.471731
vt 0.062500 1.000000
vt 0.031250 0.500000
vt 0.703178 0.485388
vt 0.203178 0.485388
vt 0.031250 1.000000
s 0
usemtl Material.001
f 13/25/13 14/28/13 16/33/13 15/31/13
f 15/31/14 16/33/14 18/37/14 17/35/14
f 17/35/15 18/37/15 20/41/15 19/39/15
f 19/39/16 20/41/16 22/45/16 21/43/16
f 21/43/17 22/45/17 24/49/17 23/47/17
f 23/47/18 24/49/18 26/53/18 25/51/18
f 25/51/19 26/53/19 28/57/19 27/55/19
f 27/55/20 28/57/20 30/61/20 29/59/20
f 29/59/21 30/61/21 32/65/21 31/63/21
f 31/63/22 32/65/22 34/69/22 33/67/22
f 33/67/23 34/69/23 36/73/23 35/71/23
f 35/71/24 36/73/24 38/77/24 37/75/24
f 37/75/25 38/77/25 40/81/25 39/79/25
s 1
f 39/79/26 40/81/27 42/85/28 41/83/29
f 41/83/29 42/85/28 44/89/30 43/87/31
f 43/87/31 44/89/30 46/93/32 45/91/33
f 45/91/33 46/93/32 48/97/34 47/95/35
s 0
f 47/95/36 48/97/36 50/101/36 49/99/36
f 49/99/37 50/101/37 52/105/37 51/103/37
f 51/103/38 52/105/38 54/109/38 53/107/38
f 53/107/39 54/109/39 56/113/39 55/111/39
s 1
f 55/111/40 56/113/41 58/117/42 57/115/43
f 57/115/43 58/117/42 60/121/44 59/119/45
f 59/119/45 60/121/44 62/125/46 61/123/47
f 61/123/47 62/125/46 64/129/48 63/127/49
s 0
f 63/127/50 64/129/50 66/133/50 65/131/50
f 65/131/51 66/133/51 68/137/51 67/135/51
f 67/135/52 68/137/52 70/141/52 69/139/52
s 1
f 69/139/53 70/141/54 72/145/55 71/143/56
f 71/143/56 72/145/55 74/150/57 73/147/58
s 0
f 16/34/59 14/29/59 76/153/59 74/149/59 72/146/59 70/142/59 68/138/59 66/134/59 64/130/59 62/126/59 60/122/59 58/118/59 56/114/59 54/110/59 52/106/59 50/102/59 48/98/59 46/94/59 44/90/59 42/86/59 40/82/59 38/78/59 36/74/59 34/70/59 32/66/59 30/62/59 28/58/59 26/54/59 24/50/59 22/46/59 20/42/59 18/38/59
s 1
f 73/147/58 74/150/57 76/154/60 75/151/61
f 75/151/61 76/154/60 14/30/62 13/26/63
s 0
f 13/27/64 15/32/64 17/36/64 19/40/64 21/44/64 23/48/64 25/52/64 27/56/64 29/60/64 31/64/64 33/68/64 35/72/64 37/76/64 39/80/64 41/84/64 43/88/64 45/92/64 47/96/64 49/100/64 51/104/64 53/108/64 55/112/64 57/116/64 59/120/64 61/124/64 63/128/64 65/132/64 67/136/64 69/140/64 71/144/64 73/148/64 75/152/64
